<mxfile host="app.diagrams.net" modified="2023-04-06T06:03:42.798Z" agent="Mozilla/5.0 (Windows NT 10.0; Win64; x64) AppleWebKit/537.36 (KHTML, like Gecko) Chrome/101.0.0.0 Safari/537.36" version="21.1.4" etag="Q_ZkjPDZD5tuLsaZaY4I" type="github">
  <diagram name="第 1 页" id="N1e0VzQRLFKc3hqiaFVZ">
    <mxGraphModel>
      <root>
        <mxCell id="0" />
        <mxCell id="1" parent="0" />
      </root>
    </mxGraphModel>
  </diagram>
</mxfile>
